# Retro Cafe Pendant Light
# Original geometry: KAFKA2306/vrmine
mtllib pendant-light.mtl
o RetroCafe_PendantLight
v 0.300000 1.550000 0.000000
v 0.259808 1.550000 0.150000
v 0.150000 1.550000 0.259808
v 0.000000 1.550000 0.300000
v -0.150000 1.550000 0.259808
v -0.259808 1.550000 0.150000
v -0.300000 1.550000 0.000000
v -0.259808 1.550000 -0.150000
v -0.150000 1.550000 -0.259808
v -0.000000 1.550000 -0.300000
v 0.150000 1.550000 -0.259808
v 0.259808 1.550000 -0.150000
v 0.115000 1.920000 0.000000
v 0.099593 1.920000 0.057500
v 0.057500 1.920000 0.099593
v 0.000000 1.920000 0.115000
v -0.057500 1.920000 0.099593
v -0.099593 1.920000 0.057500
v -0.115000 1.920000 0.000000
v -0.099593 1.920000 -0.057500
v -0.057500 1.920000 -0.099593
v -0.000000 1.920000 -0.115000
v 0.057500 1.920000 -0.099593
v 0.099593 1.920000 -0.057500
v 0.260000 1.565000 0.000000
v 0.225167 1.565000 0.130000
v 0.130000 1.565000 0.225167
v 0.000000 1.565000 0.260000
v -0.130000 1.565000 0.225167
v -0.225167 1.565000 0.130000
v -0.260000 1.565000 0.000000
v -0.225167 1.565000 -0.130000
v -0.130000 1.565000 -0.225167
v -0.000000 1.565000 -0.260000
v 0.130000 1.565000 -0.225167
v 0.225167 1.565000 -0.130000
v 0.085000 1.900000 0.000000
v 0.073612 1.900000 0.042500
v 0.042500 1.900000 0.073612
v 0.000000 1.900000 0.085000
v -0.042500 1.900000 0.073612
v -0.073612 1.900000 0.042500
v -0.085000 1.900000 0.000000
v -0.073612 1.900000 -0.042500
v -0.042500 1.900000 -0.073612
v -0.000000 1.900000 -0.085000
v 0.042500 1.900000 -0.073612
v 0.073612 1.900000 -0.042500
v 0.052000 1.900000 0.000000
v 0.036770 1.900000 0.036770
v 0.000000 1.900000 0.052000
v -0.036770 1.900000 0.036770
v -0.052000 1.900000 0.000000
v -0.036770 1.900000 -0.036770
v -0.000000 1.900000 -0.052000
v 0.036770 1.900000 -0.036770
v 0.052000 2.060000 0.000000
v 0.036770 2.060000 0.036770
v 0.000000 2.060000 0.052000
v -0.036770 2.060000 0.036770
v -0.052000 2.060000 0.000000
v -0.036770 2.060000 -0.036770
v -0.000000 2.060000 -0.052000
v 0.036770 2.060000 -0.036770
v 0.000000 1.900000 0.000000
v 0.000000 2.060000 0.000000
v 0.012000 2.060000 0.000000
v 0.008485 2.060000 0.008485
v 0.000000 2.060000 0.012000
v -0.008485 2.060000 0.008485
v -0.012000 2.060000 0.000000
v -0.008485 2.060000 -0.008485
v -0.000000 2.060000 -0.012000
v 0.008485 2.060000 -0.008485
v 0.012000 2.440000 0.000000
v 0.008485 2.440000 0.008485
v 0.000000 2.440000 0.012000
v -0.008485 2.440000 0.008485
v -0.012000 2.440000 0.000000
v -0.008485 2.440000 -0.008485
v -0.000000 2.440000 -0.012000
v 0.008485 2.440000 -0.008485
v 0.000000 2.060000 0.000000
v 0.000000 2.440000 0.000000
v 0.105000 2.420000 0.000000
v 0.090933 2.420000 0.052500
v 0.052500 2.420000 0.090933
v 0.000000 2.420000 0.105000
v -0.052500 2.420000 0.090933
v -0.090933 2.420000 0.052500
v -0.105000 2.420000 0.000000
v -0.090933 2.420000 -0.052500
v -0.052500 2.420000 -0.090933
v -0.000000 2.420000 -0.105000
v 0.052500 2.420000 -0.090933
v 0.090933 2.420000 -0.052500
v 0.105000 2.500000 0.000000
v 0.090933 2.500000 0.052500
v 0.052500 2.500000 0.090933
v 0.000000 2.500000 0.105000
v -0.052500 2.500000 0.090933
v -0.090933 2.500000 0.052500
v -0.105000 2.500000 0.000000
v -0.090933 2.500000 -0.052500
v -0.052500 2.500000 -0.090933
v -0.000000 2.500000 -0.105000
v 0.052500 2.500000 -0.090933
v 0.090933 2.500000 -0.052500
v 0.000000 2.420000 0.000000
v 0.000000 2.500000 0.000000
v 0.000000 1.762000 0.000000
v 0.075000 1.710000 0.000000
v 0.053033 1.710000 0.053033
v 0.000000 1.710000 0.075000
v -0.053033 1.710000 0.053033
v -0.075000 1.710000 0.000000
v -0.053033 1.710000 -0.053033
v -0.000000 1.710000 -0.075000
v 0.053033 1.710000 -0.053033
v 0.075000 1.630000 0.000000
v 0.053033 1.630000 0.053033
v 0.000000 1.630000 0.075000
v -0.053033 1.630000 0.053033
v -0.075000 1.630000 0.000000
v -0.053033 1.630000 -0.053033
v -0.000000 1.630000 -0.075000
v 0.053033 1.630000 -0.053033
v 0.000000 1.578000 0.000000
usemtl ShadeWarm
f 1 2 14 13
f 2 3 15 14
f 3 4 16 15
f 4 5 17 16
f 5 6 18 17
f 6 7 19 18
f 7 8 20 19
f 8 9 21 20
f 9 10 22 21
f 10 11 23 22
f 11 12 24 23
f 12 1 13 24
usemtl ShadeInner
f 37 38 26 25
f 38 39 27 26
f 39 40 28 27
f 40 41 29 28
f 41 42 30 29
f 42 43 31 30
f 43 44 32 31
f 44 45 33 32
f 45 46 34 33
f 46 47 35 34
f 47 48 36 35
f 48 37 25 36
usemtl MetalDark
f 25 26 2 1
f 26 27 3 2
f 27 28 4 3
f 28 29 5 4
f 29 30 6 5
f 30 31 7 6
f 31 32 8 7
f 32 33 9 8
f 33 34 10 9
f 34 35 11 10
f 35 36 12 11
f 36 25 1 12
f 13 14 38 37
f 14 15 39 38
f 15 16 40 39
f 16 17 41 40
f 17 18 42 41
f 18 19 43 42
f 19 20 44 43
f 20 21 45 44
f 21 22 46 45
f 22 23 47 46
f 23 24 48 47
f 24 13 37 48
f 49 50 58 57
f 50 51 59 58
f 51 52 60 59
f 52 53 61 60
f 53 54 62 61
f 54 55 63 62
f 55 56 64 63
f 56 49 57 64
f 50 49 65
f 51 50 65
f 52 51 65
f 53 52 65
f 54 53 65
f 55 54 65
f 56 55 65
f 49 56 65
f 66 57 58
f 66 58 59
f 66 59 60
f 66 60 61
f 66 61 62
f 66 62 63
f 66 63 64
f 66 64 57
f 67 68 76 75
f 68 69 77 76
f 69 70 78 77
f 70 71 79 78
f 71 72 80 79
f 72 73 81 80
f 73 74 82 81
f 74 67 75 82
f 68 67 83
f 69 68 83
f 70 69 83
f 71 70 83
f 72 71 83
f 73 72 83
f 74 73 83
f 67 74 83
f 84 75 76
f 84 76 77
f 84 77 78
f 84 78 79
f 84 79 80
f 84 80 81
f 84 81 82
f 84 82 75
f 85 86 98 97
f 86 87 99 98
f 87 88 100 99
f 88 89 101 100
f 89 90 102 101
f 90 91 103 102
f 91 92 104 103
f 92 93 105 104
f 93 94 106 105
f 94 95 107 106
f 95 96 108 107
f 96 85 97 108
f 86 85 109
f 87 86 109
f 88 87 109
f 89 88 109
f 90 89 109
f 91 90 109
f 92 91 109
f 93 92 109
f 94 93 109
f 95 94 109
f 96 95 109
f 85 96 109
f 110 97 98
f 110 98 99
f 110 99 100
f 110 100 101
f 110 101 102
f 110 102 103
f 110 103 104
f 110 104 105
f 110 105 106
f 110 106 107
f 110 107 108
f 110 108 97
usemtl BulbGlow
f 111 112 113
f 111 113 114
f 111 114 115
f 111 115 116
f 111 116 117
f 111 117 118
f 111 118 119
f 111 119 112
f 112 113 121 120
f 113 114 122 121
f 114 115 123 122
f 115 116 124 123
f 116 117 125 124
f 117 118 126 125
f 118 119 127 126
f 119 112 120 127
f 128 121 120
f 128 122 121
f 128 123 122
f 128 124 123
f 128 125 124
f 128 126 125
f 128 127 126
f 128 120 127
